<svg width="28" height="28" viewBox="0 0 28 28" fill="none" xmlns="http://www.w3.org/2000/svg">
<circle cx="14" cy="14" r="14" fill="#EFEFF7"/>
<path d="M17.6327 10.7469C17.5269 10.6981 17.3129 10.8263 17.3129 10.8263L9.82031 15.0297C9.82031 15.0297 10.9053 18.1418 10.9625 18.3211C11.0292 18.5748 11.2823 18.678 11.2823 18.678L11.5564 15.7832L17.6784 10.9849C17.6784 10.9849 17.7385 10.7958 17.6327 10.7469Z" fill="#B2B1C0"/>
<path d="M11.5552 15.7432C11.5552 15.7432 11.2532 18.4794 11.2354 18.5983C11.2175 18.7173 11.4413 18.7792 11.6466 18.638C12.313 18.1795 13.5654 17.0518 13.5654 17.0518L11.5552 15.7432Z" fill="#B2B1C0"/>
<path d="M19.0482 8.84311C18.6777 8.93888 15.2789 10.03 12.1952 11.1035C9.46442 12.0541 7.19769 12.9154 6.98693 13.0069C6.30205 13.2051 5.58888 13.6356 6.71282 14.0776C7.23967 14.3063 9.8195 15.0293 9.8195 15.0293C9.8195 15.0293 17.0927 10.9474 17.3121 10.8259C17.6481 10.6274 17.8671 10.8078 17.5405 11.1035C17.3959 11.225 11.5556 15.7431 11.5556 15.7431C11.6568 15.7422 16.1622 18.7336 16.3984 18.9552C17.174 19.5154 17.8182 19.2105 17.9517 18.5983C17.9793 18.4879 18.708 15.8267 19.2766 13.3638C19.6878 11.5828 20.0179 9.82771 20.099 9.43794C20.2179 8.78006 19.9399 8.62382 19.0482 8.84311Z" fill="#D0D0D9"/>
</svg>
