<svg width="28" height="28" viewBox="0 0 28 28" fill="none" xmlns="http://www.w3.org/2000/svg">
<circle cx="14" cy="14" r="14" fill="#EFEFF7"/>
<path d="M8.62292 10.0843C9.52659 10.0843 10.2458 9.38727 10.2458 8.53343C10.2458 7.67959 9.52659 7 8.62292 7C7.71925 7 7 7.67959 7 8.53343C7 9.38727 7.71925 10.0843 8.62292 10.0843ZM10.043 19.25V10.8336H7.20287V19.25H10.043Z" fill="#B2B1C0"/>
<path d="M21 19.25V13.2905C21 11.7397 20.0779 10.6245 18.0492 10.6245C16.5554 10.6245 15.5042 11.2692 14.9694 11.8617V10.8336H12.1293V19.25H14.9694V13.8133C15.3013 13.4299 15.8546 12.9943 16.7029 12.9943C17.5882 12.9943 18.1599 13.3602 18.1599 14.3883V19.25H21Z" fill="#B2B1C0"/>
</svg>
