<svg width="28" height="28" viewBox="0 0 28 28" fill="none" xmlns="http://www.w3.org/2000/svg">
<circle cx="14" cy="14" r="14" fill="#EFEFF7"/>
<path fill-rule="evenodd" clip-rule="evenodd" d="M18.63 14.7902C18.63 14.7902 20.4747 12.0127 20.658 11.0999C20.719 10.7739 20.5847 10.5912 20.267 10.5912H18.6667C18.3002 10.5912 18.1658 10.7607 18.0559 11.0085C18.0559 11.0085 17.1906 12.9765 16.1379 14.2165C15.7999 14.6174 15.6281 14.7381 15.4415 14.7381C15.2911 14.7381 15.2217 14.6042 15.2217 14.2426V11.0738C15.2217 10.6304 15.1728 10.5 14.8308 10.5H12.2653C12.0698 10.5 11.9476 10.6213 11.9476 10.7868C11.9476 11.2044 12.5463 11.2986 12.5463 12.4299V14.7642C12.5463 15.2336 12.5218 15.4162 12.3141 15.4162C11.7644 15.4162 10.4573 13.395 9.72431 11.0999C9.57769 10.6304 9.41887 10.5 9.00349 10.5H7.40319C7.17106 10.5 7 10.6695 7 10.9172C7 11.3736 7.50089 13.4862 9.46775 16.316C10.7871 18.2198 12.5218 19.25 14.0855 19.25C15.0384 19.25 15.2705 19.0805 15.2705 18.6501V17.1896C15.2705 16.8245 15.4049 16.668 15.6004 16.668C15.8202 16.668 16.2084 16.7434 17.1152 17.6982C18.1902 18.7936 18.2635 19.25 18.85 19.25H20.6457C20.829 19.25 21 19.1587 21 18.8327C21 18.4024 20.4747 17.633 19.6684 16.7202C19.3386 16.2507 18.8011 15.7422 18.63 15.5075C18.3857 15.2336 18.459 15.0771 18.63 14.7902Z" fill="#B2B1C0"/>
</svg>
