<svg xmlns="http://www.w3.org/2000/svg" viewBox="0 0 290 191"><linearGradient id="a" x2="1" y1=".424" y2=".424" gradientTransform="matrix(197.197 0 0 151.721 70.764 1)" gradientUnits="userSpaceOnUse"><stop offset="0%" stop-color="#f4c7ce"/><stop offset="100%" stop-color="#fff" stop-opacity="0"/></linearGradient><path fill="url(#a)" d="M99.249 152.721l132.731-30.884-30.184-62.967 66.165-15.492L250.67 1 70.764 77.96l28.485 74.761z"/><path fill="#A3A2FE" fill-rule="evenodd" d="M185.204 73.662s1 10.594 2.799 15.892c1.799 5.297-.9 6.696-.6 9.994.3 3.299 1.899.6 4.598 1.7 3.198 1.399 6.197 12.993 8.295 12.593 2.099-.4 8.596-4.798 11.694-7.496 3.099-2.699 5.298 3.798 7.796 7.496 2.499 3.698 19.29-6.896 18.89-10.994-.399-4.098-11.294-8.396-12.193-23.588-1.599-28.785-31.584-25.287-41.279-5.597z"/><path fill="#070E56" fill-rule="evenodd" d="M121.638 165.614s4.997-9.595 9.395-10.195c2.998-.4 7.096.6 10.694 1.999a39.62 39.62 0 0 1 4.698 2.099c4.197 2.199 5.997 5.297 11.993 5.297 5.997 0 33.583.2 33.583.2l2.199 10.994-44.977-.2c-.899 0-1.799-.199-2.598-.499-2.499-1.1-4.598-2.999-5.897-5.497-1.6-3.199-7.496-3.099-9.995-1.799-2.499 1.299-4.598 2.398-5.597 1.199-1-1.199-1.899-1.599-.1-3.298s5.997-5.198 7.596-5.298c1.599-.1-1-1.399-2.399-.699-1.399.699-6.696 5.697-7.596 5.997-.899.3-1.099.2-.999-.3z"/><path fill="#3825A2" fill-rule="evenodd" d="M166.614 160.716l-.2 8.796s10.695.2 22.089-.6c11.394-.799 42.477-45.176 47.275-50.673 4.797-5.498-12.793-2.899-12.793-2.899s-27.286 36.281-33.383 40.279c-6.097 3.998-22.988 5.097-22.988 5.097z"/><path fill="#070E56" d="M5.798 178.207h180.106c1.799 0 3.298 1.499 3.298 3.298v6.597c0 1.799-1.499 3.298-3.298 3.298H5.798c-1.799 0-3.298-1.499-3.298-3.298v-6.597c0-1.799 1.399-3.298 3.298-3.298z"/><path fill="#070E56" d="M77.761 117.239h1.999c.599 0 .999.4.999 1v72.662c0 .599-.4.999-.999.999h-1.999c-.6 0-1-.4-1-.999v-72.562c0-.7.4-1.1 1-1.1zm18.29 54.272h59.769c1.399 0 2.598 1.199 2.598 2.598v5.198c0 1.399-1.199 2.598-2.598 2.598H96.051c-1.399 0-2.599-1.199-2.599-2.598v-5.198c.1-1.399 1.2-2.598 2.599-2.598z"/><path fill="#3825A2" d="M224.284 121.237c1.199 2.699 1.499 53.872 1.499 70.763h61.168c-.8-6.097-1.899-13.993-3.098-24.087-3.898-33.383-37.181-59.569-43.378-65.466-3.898-3.798-4.897-4.798-5.097-4.997l-17.791 18.19s5.198 2.299 6.697 5.597z"/><path fill="#A3A2FE" fill-rule="evenodd" d="M116.64 168.612s4.998-9.595 9.395-10.194c2.999-.4 6.997.599 10.695 1.999a39.529 39.529 0 0 1 4.697 2.098c4.198 2.199 5.997 5.298 11.894 5.298s33.682.2 33.682.2l2.199 10.994-44.976-.2c-.9 0-1.799-.2-2.699-.5a12.112 12.112 0 0 1-5.897-5.497c-1.599-3.198-7.496-3.098-9.994-1.799-2.499 1.299-4.598 2.399-5.598 1.199-.999-1.199-1.899-1.599-.099-3.298 1.799-1.699 5.996-5.197 7.596-5.297 1.599-.1-1-1.399-2.399-.7-1.399.7-6.797 5.697-7.596 5.997-.8.3-1 .2-.9-.3z"/><path fill="#4A31CF" fill-rule="evenodd" d="M179.707 181.106c2.699.2 26.187.799 27.786.499 3.898-.799 27.885-35.881 40.379-40.478 2.098-.8-6.997 34.881-11.095 50.873h50.574c-2.699-25.687-9.795-67.765-27.886-81.957-13.792-10.794-21.188 2.399-27.385 7.796-6.197 5.397-29.985 37.98-37.481 43.377-4.797 3.198-10.494 4.698-16.291 4.198.1-.1-1.099 15.492 1.399 15.692z"/><linearGradient id="b" x1=".451" x2=".629" y1=".101" y2="1.088" gradientTransform="matrix(35.109 0 0 31.143 192.968 59.862)" gradientUnits="userSpaceOnUse"><stop offset="0%" stop-color="#4a31cf"/><stop offset="75.72%" stop-color="#4a31cf" stop-opacity="0"/></linearGradient><path fill="url(#b)" d="M193.2 67.465c1 2.299 3.598 2.799 10.095 16.791 1.899 4.098 3.398-4.897 6.696-4.997 3.299-.1 7.496 2.499 7.297 8.196-.2 5.697 6.296 3.298 9.694 1.299 3.399-1.999-2.298-10.095-1.199-21.589 1.199-11.893-36.081-7.396-32.583.3z"/><path fill="#4A31CF" fill-rule="evenodd" d="M184.305 75.361c-4.398-5.297 1.399-26.486 27.685-18.19 10.995 3.498 10.595 6.696 18.291 8.095 2.898.5-4.498 9.196-25.787 7.796-15.692-.999-17.491 5.597-20.189 2.299z"/><path fill="#8D7EE1" fill-rule="evenodd" d="M119.639 171.611s7.496-5.797 10.594-5.897c2.899 0-.5.599-2.099 1.399 0 0-.1 0-.1.1 0 0-7.396 3.498-8.395 4.398z"/><path fill="#070E56" fill-rule="evenodd" d="M69.265 70.564s-4.598 6.596.5 25.486c3.698 13.693 13.493 40.679 21.588 51.173 8.096 10.495 12.694 11.994 12.694 11.994S68.565 70.863 69.265 70.564z"/></svg>