<?xml version="1.0" encoding="utf-8"?>
<!-- Generator: Adobe Illustrator 24.1.1, SVG Export Plug-In . SVG Version: 6.00 Build 0)  -->
<svg version="1.1" id="Слой_1" xmlns="http://www.w3.org/2000/svg" xmlns:xlink="http://www.w3.org/1999/xlink" x="0px" y="0px"
	 viewBox="0 0 290 191" style="enable-background:new 0 0 290 191;" xml:space="preserve">
<style type="text/css">
	.st0{fill:url(#SVGID_1_);}
	.st1{fill-rule:evenodd;clip-rule:evenodd;fill:#E5E8EA;}
	.st2{fill-rule:evenodd;clip-rule:evenodd;fill:#A9ACB0;}
	.st3{fill-rule:evenodd;clip-rule:evenodd;fill:#D60026;}
	.st4{fill:#D60026;}
	.st5{fill:url(#SVGID_2_);}
	.st6{fill-rule:evenodd;clip-rule:evenodd;fill:#3E4244;}
	.st7{fill:#3E4244;}
	.st8{fill-rule:evenodd;clip-rule:evenodd;fill:#FC233B;}
</style>
<linearGradient id="SVGID_1_" gradientUnits="userSpaceOnUse" x1="133.3207" y1="0.8163" x2="134.3207" y2="0.8163" gradientTransform="matrix(197.197 0 0 151.721 -26219.6348 -46.9992)">
	<stop  offset="0" style="stop-color:#F4C7CE"/>
	<stop  offset="1" style="stop-color:#FFFFFF;stop-opacity:0"/>
</linearGradient>
<path class="st0" d="M99.2,152.7L232,121.8l-30.2-63L268,43.4L250.7,1L70.8,78L99.2,152.7L99.2,152.7z"/>
<path class="st1" d="M185.2,73.7c0,0,1,10.6,2.8,15.9s-0.9,6.7-0.6,10c0.3,3.3,1.9,0.6,4.6,1.7c3.2,1.4,6.2,13,8.3,12.6
	s8.6-4.8,11.7-7.5c3.1-2.7,5.3,3.8,7.8,7.5s19.3-6.9,18.9-11c-0.4-4.1-11.3-8.4-12.2-23.6C224.9,50.5,194.9,54,185.2,73.7
	L185.2,73.7z"/>
<path class="st2" d="M121.6,165.6c0,0,5-9.6,9.4-10.2c3-0.4,7.1,0.6,10.7,2c1.6,0.6,3.2,1.3,4.7,2.1c4.2,2.2,6,5.3,12,5.3
	S192,165,192,165l2.2,11l-45-0.2c-0.9,0-1.8-0.2-2.6-0.5c-2.5-1.1-4.6-3-5.9-5.5c-1.6-3.2-7.5-3.1-10-1.8s-4.6,2.4-5.6,1.2
	s-1.9-1.6-0.1-3.3s6-5.2,7.6-5.3s-1-1.4-2.4-0.7s-6.7,5.7-7.6,6C121.7,166.2,121.5,166.1,121.6,165.6z"/>
<path class="st3" d="M166.6,160.7l-0.2,8.8c0,0,10.7,0.2,22.1-0.6c11.4-0.8,42.5-45.2,47.3-50.7s-12.8-2.9-12.8-2.9
	s-27.3,36.3-33.4,40.3C183.5,159.6,166.6,160.7,166.6,160.7L166.6,160.7z"/>
<path d="M5.8,178.2h180.1c1.8,0,3.3,1.5,3.3,3.3v6.6c0,1.8-1.5,3.3-3.3,3.3H5.8c-1.8,0-3.3-1.5-3.3-3.3v-6.6
	C2.5,179.7,3.9,178.2,5.8,178.2z"/>
<path class="st4" d="M224.3,121.2c1.2,2.7,1.5,53.9,1.5,70.8H287c-0.8-6.1-1.9-14-3.1-24.1c-3.9-33.4-37.2-59.6-43.4-65.5
	c-3.9-3.8-4.9-4.8-5.1-5l-17.8,18.2C217.6,115.6,222.8,117.9,224.3,121.2L224.3,121.2z"/>
<linearGradient id="SVGID_2_" gradientUnits="userSpaceOnUse" x1="130.6189" y1="1.6648" x2="130.7987" y2="2.6616" gradientTransform="matrix(35.109 0 0 31.143 -4377.6382 11.8619)">
	<stop  offset="0" style="stop-color:#3E4244"/>
	<stop  offset="0.7572" style="stop-color:#3E4244;stop-opacity:0"/>
</linearGradient>
<path class="st5" d="M193.2,67.5c1,2.3,3.6,2.8,10.1,16.8c1.9,4.1,3.4-4.9,6.7-5s7.5,2.5,7.3,8.2s8.6,5.1,9.7,1.3
	c0.9-3-1.3-13.2-2.1-20.6C225.8,57.3,189.7,59.8,193.2,67.5L193.2,67.5z"/>
<path class="st6" d="M184.3,75.4c-4.4-5.3,1.4-26.5,27.7-18.2c11,3.5,10.6,6.7,18.3,8.1c2.9,0.5-4.5,9.2-25.8,7.8
	C188.8,72.1,187,78.7,184.3,75.4z"/>
<path class="st2" d="M119.6,171.6c0,0,7.5-5.8,10.6-5.9c2.9,0-0.5,0.6-2.1,1.4c0,0-0.1,0-0.1,0.1C128,167.2,120.6,170.7,119.6,171.6
	z"/>
<path class="st6" d="M69.3,70.6c0,0-4.6,6.6,0.5,25.5c3.7,13.7,13.5,40.7,21.6,51.2s12.7,12,12.7,12S68.6,70.9,69.3,70.6z"/>
<path class="st7" d="M77.8,117.2h2c0.6,0,1,0.3,1,0.8v60.1c0,0.5-0.4,0.8-1,0.8h-2c-0.6,0-1-0.3-1-0.8v-60
	C76.8,117.6,77.2,117.2,77.8,117.2z M96.1,171.5h59.8c1.4,0,2.6,1.2,2.6,2.6v5.2c0,1.4-1.2,2.6-2.6,2.6H96.1c-1.4,0-2.6-1.2-2.6-2.6
	v-5.2C93.6,172.7,94.7,171.5,96.1,171.5z"/>
<path class="st1" d="M116.6,168.6c0,0,5-9.6,9.4-10.2c3-0.4,7,0.6,10.7,2c1.6,0.6,3.2,1.3,4.7,2.1c4.2,2.2,6,5.3,11.9,5.3
	S187,168,187,168l2.2,11l-45-0.2c-0.9,0-1.8-0.2-2.7-0.5c-2.5-1.1-4.6-3-5.9-5.5c-1.6-3.2-7.5-3.1-10-1.8s-4.6,2.4-5.6,1.2
	s-1.9-1.6-0.1-3.3s6-5.2,7.6-5.3s-1-1.4-2.4-0.7s-6.8,5.7-7.6,6C116.7,169.2,116.5,169.1,116.6,168.6L116.6,168.6z"/>
<path class="st8" d="M179.7,181.1c2.7,0.2,26.2,0.8,27.8,0.5c3.9-0.8,27.9-35.9,40.4-40.5c2.1-0.8-7,34.9-11.1,50.9h50.6
	c-2.7-25.7-9.8-67.8-27.9-82c-13.8-10.8-21.2,2.4-27.4,7.8s-30,38-37.5,43.4c-4.8,3.2-10.5,4.7-16.3,4.2
	C178.4,165.3,177.2,180.9,179.7,181.1z"/>
</svg>
