<?xml version="1.0" encoding="utf-8"?>
<!-- Generator: Adobe Illustrator 24.1.1, SVG Export Plug-In . SVG Version: 6.00 Build 0)  -->
<svg version="1.1" id="Слой_1" xmlns="http://www.w3.org/2000/svg" xmlns:xlink="http://www.w3.org/1999/xlink" x="0px" y="0px"
	 viewBox="0 0 622.7 212.7" style="enable-background:new 0 0 622.7 212.7;" xml:space="preserve">
<style type="text/css">
	.st0{fill:#FFFFFF;}
</style>
<g>
	<path class="st0" d="M40.8,40.8c22.4,0,40.5-18,40.8-40.2h0V0H61.2v0.3C61.1,11.4,52,20.4,40.8,20.4s-20.3-9-20.4-20.1V0H0v0.6h0
		C0.3,22.9,18.5,40.8,40.8,40.8z"/>
	<path class="st0" d="M61.2,41.1C61.1,52.2,52,61.2,40.8,61.2c-5.5,0-10.5-2.2-14.2-5.8L12.2,69.9c7.4,7.3,17.5,11.8,28.7,11.8
		c22.4,0,40.5-18,40.8-40.2h0v-0.6H61.2V41.1z"/>
	<path class="st0" d="M249.1,58.8c3.5,0,6.7-0.9,9.6-2.6v1.9v0.2v0.5h9.6v-0.5v-0.2V38.9h0c-0.4-10.2-8.8-18.3-19.1-18.3
		c-10.6,0-19.1,8.6-19.1,19.1C230,50.3,238.6,58.8,249.1,58.8z M249.1,30.1c5.3,0,9.6,4.3,9.6,9.6c0,5.3-4.3,9.6-9.6,9.6
		c-5.3,0-9.6-4.3-9.6-9.6C239.6,34.4,243.9,30.1,249.1,30.1z"/>
	<path class="st0" d="M134.5,58.8c10.5,0,19-8.4,19.1-18.8h0V20.6H144v19.2c-0.1,5.2-4.3,9.4-9.5,9.4c-5.2,0-9.5-4.2-9.5-9.4V20.6
		h-9.6V40h0C115.5,50.4,124,58.8,134.5,58.8z"/>
	<path class="st0" d="M225.2,58.8V39.4h0c-0.1-10.4-8.6-18.8-19.1-18.8c-5.7,0-10.8,2.5-14.3,6.5c-3.5-4-8.6-6.5-14.3-6.5
		c-10.5,0-19,8.4-19.1,18.8h0v19.4h9.6V39.6c0.1-5.2,4.3-9.4,9.5-9.4c5.2,0,9.5,4.2,9.5,9.4v19.2h9.6V39.6c0.1-5.2,4.3-9.4,9.5-9.4
		c5.2,0,9.5,4.2,9.5,9.4v19.2H225.2z"/>
	<rect x="273" y="20.5" class="st0" width="9.6" height="38.5"/>
	<path class="st0" d="M393,21.1c-10.6,0-19.1,8.6-19.1,19.1c0,10.6,8.6,19.1,19.1,19.1c10.6,0,19.1-8.6,19.1-19.1
		C412.1,29.7,403.6,21.1,393,21.1z M393,49.8c-5.3,0-9.6-4.3-9.6-9.6c0-5.3,4.3-9.6,9.6-9.6s9.6,4.3,9.6,9.6
		C402.6,45.5,398.3,49.8,393,49.8z"/>
	<path class="st0" d="M436,59.2c10.5,0,19-8.4,19.1-18.8h0V21h-9.6v19.2c-0.1,5.2-4.3,9.4-9.5,9.4c-5.2,0-9.5-4.2-9.5-9.4V21h-9.6
		v19.4h0C417.1,50.8,425.6,59.2,436,59.2z"/>
	<path class="st0" d="M472.5,59.6v-4.8c3.3,2.6,7.4,4.1,11.9,4.1c10.6,0,19.1-8.6,19.1-19.1c0-10.6-8.6-19.1-19.1-19.1
		c-4.5,0-8.6,1.6-11.9,4.1v-3.7h-9.6v13.6v24.9v13.6h9.6V59.6z M484.3,30.3c5.3,0,9.6,4.3,9.6,9.6c0,5.3-4.3,9.6-9.6,9.6
		c-5.3,0-9.6-4.3-9.6-9.6C474.8,34.5,479.1,30.3,484.3,30.3z"/>
	<path class="st0" d="M326.2,59.2c3.5,0,6.7-0.9,9.6-2.6v2.1h0l0,0.6c0,2.2-1.4,4.2-3.6,5.6c-2.3,1.5-4.5,2.2-6.6,2.2
		c-4.6,0-8.2-0.8-10.8-2.6l-4.5,6.7c0.8,0.6,1.7,1.1,2.7,1.6c1.1,0.6,2.9,1.2,5.4,1.9c2.4,0.7,4.8,1,7.2,1c5.5,0,10.3-1.7,14.1-5
		c3.6-3.2,5.5-7.2,5.7-12.1h0v-0.6v-1.9V39.3h0c-0.4-10.2-8.8-18.3-19.1-18.3c-10.6,0-19.1,8.6-19.1,19.1S315.6,59.2,326.2,59.2z
		 M326.2,30.5c5.3,0,9.6,4.3,9.6,9.6c0,5.3-4.3,9.6-9.6,9.6c-5.3,0-9.6-4.3-9.6-9.6C316.6,34.8,320.9,30.5,326.2,30.5z"/>
	<path class="st0" d="M359.6,40c0.1-5.2,4.3-9.4,9.5-9.4V21c-10.4,0-18.9,8.4-19,18.8h0v19.4h9.6V40z"/>
	<circle class="st0" cx="277.8" cy="11.7" r="5.9"/>
	<rect y="120.1" class="st0" width="115.4" height="4.8"/>
	<path class="st0" d="M359.4,182.7c0.2-0.4,0.2-0.9-0.2-1.2l-2.4-2.4c-0.4-0.4-1-0.4-1.4,0c-0.8,1-1.3,2-1.6,3.2c0,0,0,0,0,0
		c0,0.1-0.1,0.3-0.1,0.4c0,0.2-0.1,0.3-0.1,0.5c0,0.2-0.1,0.3-0.1,0.5c0,0.2,0,0.3,0,0.5c0,0.2,0,0.3,0,0.5c0,0.3,0,0.6,0,0.9
		c0,0,0,0,0,0c0.2,1.9,1,3.8,2.5,5.3c2.5,2.5,5.9,3.5,9.4,2.8c1.9-0.4,3.7-1.3,5.2-2.8c2.3-2.3,3.6-5.4,3.6-8.7
		c0-3.3-1.3-6.3-3.6-8.7c-2.7-2.7-6.2-4.2-10-4.3l-0.3,0c-3.8,0-7.4,1.4-10.1,4.1c-0.9,0.7-1.6,1.5-2.3,2.3l-0.5,0.6l-0.4-0.6
		c-1.3-1.9-3.1-3.5-5.1-4.6l-0.4-0.2c-3.8-1.9-8.3-2.1-12.2-0.4l-0.2,0.1l-0.2-0.1c-4.5-1.9-9.8-1.4-13.9,1.4l-0.8,0.6v-2.2
		c0-0.5-0.4-0.9-0.9-0.9c0,0-1.8,0-1.8,0c0,0-1.8,0-1.8,0c-0.1,0-0.4,0-0.6,0.3c-0.2,0.2-0.3,0.4-0.3,0.6v2.2l-0.6-0.4
		c-2.2-1.5-4.7-2.5-7.3-2.7c-2.4-0.2-4.7,0.2-6.8,1.1l-0.2,0.1l-0.2-0.1c-1-0.4-2.1-0.8-3.3-1l-0.2,0l-1-0.1c-0.1,0-0.3,0-0.4,0
		l-0.2,0c-4.7-0.2-9.1,1.8-12,5.5l-0.4,0.5l-0.4-0.5c-2.8-3.5-6.9-5.5-11.3-5.5c-3.5,0-6.9,1.3-9.5,3.6l-0.6,0.5l-0.3-0.8
		c-3.6-10.7-13.6-17.9-24.8-17.9l-0.1,0c-0.6,0.1-1,0.5-1,1.1v3.2c0,0.6,0.5,1.1,1,1.1l0.3,0l0.1,0c11.2,0.2,20.3,9.5,20.4,20.7
		l0,0.1c0,3.4-1.6,6.9-4.3,9.2c-1.7,1.7-4,2.7-6.5,2.7c-2.1,0-4.1-0.7-5.7-1.9c-1.6-1.2-2.7-3-2.8-5c-0.2-2.1,0.6-4.2,2.2-5.6
		c0.9-0.8,2.1-1.2,3.3-1.2h0c1.3,0,2.6,0.5,3.5,1.4c1.1,1.1,1.3,2.9,0.5,4.3c0,0,0,0,0,0c-0.2,0.4-0.2,0.9,0.2,1.2l2.4,2.4
		c0.4,0.4,1,0.4,1.4,0c2.7-3.5,2.5-8.5-0.7-11.7c-2.5-2.5-5.9-3.5-9.4-2.8c-1.9,0.4-3.8,1.4-5.2,2.8c-2.3,2.3-3.6,5.4-3.6,8.7
		c0,3.3,1.3,6.3,3.6,8.7c2.7,2.7,6.2,4.2,10,4.3l0.4,0c3.8,0,7.3-1.5,10.1-4.1c0.9-0.7,1.6-1.5,2.3-2.3l0.5-0.6l0.4,0.6
		c2.7,4,7.2,6.4,12,6.4c4.4,0,8.6-2,11.3-5.5l0.4-0.5l0.4,0.5c2.9,3.6,7.3,5.7,11.9,5.5c0,0,0,0,0.1,0l1.6-0.2l0.1,0
		c2.3-0.4,4.5-1.3,6.3-2.7l0.1-0.1c0.1-0.1,0.2-0.2,0.3-0.3l0.5-0.4c0.2-0.1,0.3-0.3,0.5-0.4c1.6-1.6,2.8-3.4,3.6-5.5
		c0.1-0.2,0.1-0.3,0.1-0.5c-0.1-0.4-0.5-0.8-0.9-0.8c-1,0-3,0-3.9,0c-0.3,0-0.7,0.2-0.8,0.5c-0.7,1.3-1.6,2.4-2.8,3.2
		c-0.1,0.1-0.2,0.1-0.3,0.2c-0.1,0.1-0.2,0.2-0.3,0.2c-0.2,0.1-0.3,0.2-0.5,0.3l-0.2,0.1c-0.2,0.1-0.3,0.1-0.4,0.2l-0.3,0.1
		c-0.1,0-0.2,0.1-0.3,0.1l-0.3,0.1c-0.1,0-0.3,0.1-0.4,0.1c-0.1,0-0.2,0.1-0.3,0.1c-0.1,0-0.2,0.1-0.4,0.1l-0.3,0
		c-0.2,0-0.3,0-0.4,0.1l-0.2,0c-0.7,0-1.3,0-2-0.1c-4.1-0.7-7.4-4-7.7-8.2c-0.4-5.3,3.8-9.8,9-9.8c0.2,0,0.5,0,0.7,0l0.1,0
		c0.2,0,0.4,0,0.5,0.1l0.2,0c0.2,0,0.3,0.1,0.5,0.1l0.1,0c0.3,0.1,0.5,0.1,0.8,0.2l0.2,0.1c0.2,0.1,0.4,0.2,0.6,0.2
		c0.1,0,0.2,0.1,0.3,0.2c0.1,0.1,0.2,0.1,0.4,0.2c0.2,0.1,0.3,0.1,0.4,0.2c0.1,0,0.1,0.1,0.2,0.1l0.2,0.1c0.1,0.1,0.2,0.1,0.3,0.2
		c1.1,0.8,2.1,1.9,2.7,3.2c0.2,0.3,0.5,0.5,0.8,0.5h3.9c0.3,0,0.6-0.1,0.7-0.4c0.2-0.2,0.2-0.6,0.1-0.8c-0.4-1.2-1-2.3-1.7-3.3
		l-0.6-0.9l1.1,0.1c4.7,0.3,8.4,4.3,8.4,9l0,13.6c0,0.5,0.4,0.9,0.9,0.9h3.6c0.5,0,0.9-0.4,0.9-0.9l0-13.3l0-0.6
		c0.1-4.6,3.7-8.4,8.3-8.7l1.1-0.1l-0.5,0.7c-1.2,1.7-2,3.6-2.4,5.6c-1.7,9.2,5.4,17.2,14.2,17.2c3.2,0,6.2-1,8.8-3l0.1-0.1
		c0.2-0.2,0.4-0.3,0.6-0.5l0.6-0.5l0.3,0.7c3.6,10.6,13.5,17.8,24.7,17.9h0.3c0.6,0,1.1-0.5,1.1-1.1v-3.2c0-0.6-0.5-1.1-1.1-1.1
		l-0.2,0l-0.3,0c-11.2-0.2-20.3-9.5-20.4-20.7l0-0.1c0-3.4,1.6-6.9,4.3-9.2c3.7-3.7,10-3.6,13.5,0.5c0.5,0.6,0.9,1.2,1.1,2
		c0.9,2.6,0.3,5.2-1.5,7c-0.7,0.7-1.6,1.3-2.5,1.5c-1.7,0.4-3.4-0.1-4.6-1.3c-0.8-0.8-1.1-1.9-0.9-3c0,0,0,0,0,0
		C359,183.6,359.2,183.1,359.4,182.7C359.4,182.7,359.4,182.7,359.4,182.7z M273.4,184.9c-0.5,4-3.8,7.3-7.8,7.8
		c-5.9,0.8-10.9-4.2-10.1-10.2c0.5-4,3.8-7.3,7.8-7.8C269.2,174,274.2,178.9,273.4,184.9z M343.9,185.5l0,0.1c0,0.2-0.1,0.5-0.2,0.7
		l-0.1,0.2c-0.1,0.2-0.1,0.4-0.2,0.6l-0.1,0.2c-0.1,0.2-0.2,0.4-0.3,0.6c-0.1,0.2-0.2,0.3-0.3,0.5l-0.1,0.1
		c-0.1,0.2-0.2,0.3-0.4,0.5c-1.7,2.3-4.4,3.7-7.3,3.7c-5.5,0-9.9-4.9-8.9-10.6c0.5-3.1,2.6-5.7,5.5-6.8c4.1-1.6,8.5-0.1,10.8,3.2
		l0.1,0.2c0.1,0.2,0.3,0.4,0.4,0.6c0.7,1.4,1.1,2.8,1.1,4.3C344.1,184.3,344,184.9,343.9,185.5z"/>
	<path class="st0" d="M86.2,168.8l3.1-6.2l-1.4-0.7l-1.8,3.6c-2.8-1.4-6-2.1-9.3-2.1c-11.9,0-21.6,9.7-21.6,21.6
		c0,8.4,4.9,15.7,11.9,19.3l-1.9,3.9l1.4,0.7l3.2-6.4c2.2,0.9,4.6,1.4,7.1,1.4c8.2,0,15.1-5.2,17.7-12.5c-5.1,3.2-13.4,3.5-21.4,0.1
		c-6.8-2.9-11.9-7.8-14-12.8c-0.7,2-1.1,4.1-1.1,6.4c0,7.3,4.2,13.7,10.3,16.8l-1,2c-6.3-3.3-10.6-9.8-10.6-17.4
		c0-7,3.7-13.2,9.3-16.7c-2.9,2.1-5.2,4.9-6.6,8.3c1.8,4.7,6.5,9.2,12.8,11.9c10,4.2,20.3,2.3,23.2-4.3c0.1-0.2,0.2-0.4,0.3-0.7
		C95.5,178,91.8,172,86.2,168.8z"/>
	<path class="st0" d="M169,177.2c0-4.4,11.4-1.4,13.5,0.9l3.6-2.9c-2.2-2.6-6.8-4.4-12.8-4.4c-9.2,0-13.2,4.7-13.2,9.7
		c0,9.2,18.2,8.2,18.2,12.1c0,5.4-13.3,1-14.8-1.9l-4,3.3c6.2,8.3,29.9,8.5,27.9-5.3C186.1,178.9,169,181.7,169,177.2z"/>
	<polygon class="st0" points="42.8,170.9 32.7,170.9 32.7,199.8 52,199.8 54,194.8 42.8,194.8 	"/>
	<path class="st0" d="M16.6,187.2h4.6v8.1c-7.5,1.5-10.6-4.6-10.5-10.3c0-2,0.6-9.4,7.6-9.4c4.7,0,6.8,2.2,7.9,3l3.4-3.4
		c-3.1-2.6-7.5-4.2-12.2-4.2c-9.6,0-17.4,6.5-17.4,14.5c0,8,7.8,14.5,17.4,14.5c4.8,0,9.2-1.6,12.3-4.3V183v-0.5H16.6V187.2z"/>
	<path class="st0" d="M118.6,184.5c3.6-0.5,6.3-3.3,6.3-6.7c0-4.5-3.9-6.9-8.1-6.9H98.2v28.9h18.6l0.6,0c0.2,0-0.3,0-0.1,0
		c4.6,0,9-3.2,9-7.6C126.3,188.1,122.9,184.9,118.6,184.5z M107.7,175.3h3.1v0c2.2,0.1,4,2,4,4.3c0,2.3-1.8,4.2-4,4.3v0h-3.1V175.3z
		 M111.2,195.4C111.2,195.4,111.2,195.4,111.2,195.4L111.2,195.4h-3.5v-8.1h3.5v0c0,0,0,0,0,0c2.2,0,3.9,1.8,3.9,4.1
		C115.1,193.6,113.4,195.4,111.2,195.4z"/>
	<path class="st0" d="M157.7,170.9h-10v18.6h0c-0.1,2.5-2.2,4.5-4.7,4.5c-2.5,0-4.6-2-4.7-4.5v-18.6h-10v14.9c0,0-0.7,14,14.7,14
		c15.5,0,14.7-14,14.7-14V170.9z"/>
	<path class="st0" d="M462.3,190.6c-0.7,0-1.1-0.5-1.1-1.2v-9.7c0-2.6-0.9-4.6-2.8-5.9c-1.8-1.3-4.1-2-6.9-2c-2.9,0-5.1,0.6-7.3,1.6
		c-1,0.4-1.4,1.5-1.1,2.5l0.1,0.4c0.4,1,1.5,1.6,2.5,1.2c2-0.7,4-1.1,5.6-1.1c2.8,0,4.9,1.3,4.9,3.4v1.2H450c-5.9,0-8.8,3.5-8.8,7.7
		c0,4,2.9,6.6,7.4,6.6c3.7,0,6.5-1,8.3-2.9c0.8,1.7,2.3,2.6,4.5,2.6h0.3c1.1,0,2-0.9,2-2v-1.2C463.6,191.2,463.1,190.6,462.3,190.6z
		 M450,190.7c-1.9,0-3.5-0.8-3.5-2.3c0-1.9,0.7-3.1,3.9-3.1h5.8C456.2,188.4,454.5,190.7,450,190.7z"/>
	<path class="st0" d="M478.8,172c-2.9,0-5.3,1.1-7.2,3.4v-1c0-1.1-0.9-2-2-2h-0.9c-1.1,0-2,0.9-2,2v26.9c0,1.1,0.9,2,2,2h1.4
		c1.1,0,2-0.9,2-2v-8.2c1.7,1.5,3.8,2.3,6.3,2.3c6.7,0,10.6-4.3,10.6-11.8c0-3.5-0.9-6.4-2.7-8.4C484.4,173,481.9,172,478.8,172z
		 M477.9,190.7c-3.6,0-5.8-2.5-5.8-6.9v-0.5c0-4.2,2.3-6.7,5.9-6.7c3.6,0,5.7,2.8,5.7,7.1C483.7,187.9,481.5,190.7,477.9,190.7z"/>
	<path class="st0" d="M540.4,190.1H539v-15.7c0-1.1-0.9-2-2-2h-11.9c-1.5,0-2.8,1.2-2.9,2.7c-0.5,5.7-1,9.5-1.6,11.5
		c-0.6,2.3-1.6,3.5-1.6,3.5h-1.5c-1.1,0-2,0.9-2,2v6.5c0,1.1,0.9,2,2,2h1.2c1.1,0,2-0.9,2-2v-3.6h16.5v3.6c0,1.1,0.9,2,2,2h1.3
		c1.1,0,2-0.9,2-2l0-6.5C542.3,190.9,541.4,190.1,540.4,190.1z M533.7,190.1h-9.1c1.3-2.4,2.1-6.6,2.5-12.8h6.6V190.1z"/>
	<path class="st0" d="M564,172.4h-1.3c-1.1,0-2,0.9-2,2v6.4h-9.9v-6.4c0-1.1-0.9-2-2-2h-1.4c-1.1,0-2,0.9-2,2V193c0,1.1,0.9,2,2,2
		h1.4c1.1,0,2-0.9,2-2v-7.4h9.9v7.4c0,1.1,0.9,2,2,2h1.3c1.1,0,2-0.9,2-2v-18.6C566,173.3,565.1,172.4,564,172.4z"/>
	<path class="st0" d="M580.8,179.5h-4.2v-5.2c0-1.1-0.9-2-2-2h-1.4c-1.1,0-2,0.9-2,2V193c0,1.1,0.9,2,2,2h7.5c4.8,0,8-3,8-7.7
		C588.8,182.5,585.7,179.5,580.8,179.5z M580.8,190h-4.2v-5.6h4.2c1.7,0,2.8,1.1,2.8,2.9C583.6,188.9,582.5,190,580.8,190z"/>
	<path class="st0" d="M594.5,172.4h-1.4c-1.1,0-2,0.9-2,2V193c0,1.1,0.9,2,2,2h1.4c1.1,0,2-0.9,2-2v-18.6
		C596.5,173.3,595.6,172.4,594.5,172.4z"/>
	<path class="st0" d="M620.7,172.4H619c-1,0-1.9,0.5-2.4,1.3l-9.4,13.6v-12.9c0-1.1-0.9-2-2-2h-1.4c-1.1,0-2,0.9-2,2V193
		c0,1.1,0.9,2,2,2h1.7c1,0,1.9-0.5,2.4-1.3l9.5-13.6V193c0,1.1,0.9,2,2,2h1.4c1.1,0,2-0.9,2-2v-18.6
		C622.7,173.3,621.8,172.4,620.7,172.4z"/>
	<path class="st0" d="M612.3,170.3c2.9,0,5.1-1.6,6-3.8c0.4-1-0.3-2-1.4-2h-0.6c-0.6,0-1.2,0.3-1.4,0.9c-0.4,1-1.3,1.6-2.7,1.6
		c-1.2,0-2.2-0.6-2.6-1.6c-0.2-0.6-0.8-0.9-1.4-0.9h-0.6c-1,0-1.7,1.1-1.4,2C607.2,168.7,609.4,170.3,612.3,170.3z"/>
	<path class="st0" d="M435.4,172.4h-1.3c-1.1,0-2,0.9-2,2v6.4h-9.9v-6.4c0-1.1-0.9-2-2-2h-1.4c-1.1,0-2,0.9-2,2V193c0,1.1,0.9,2,2,2
		h1.4c1.1,0,2-0.9,2-2v-7.4h9.9v7.4c0,1.1,0.9,2,2,2h1.3c1.1,0,2-0.9,2-2v-18.6C437.4,173.3,436.5,172.4,435.4,172.4z"/>
	<path class="st0" d="M506.3,172.3c0.1-0.1,0.2-0.1,0.3-0.2l5.9-3c1.7-0.9,2.8-2.6,2.8-4.5v-7.2h-0.5c0,1.9-1.1,3.7-2.8,4.5l-5.9,3
		c-1.7,0.9-2.8,2.6-2.8,4.5v2.5c-6.4,0.1-11.5,5.3-11.5,11.7c0,6.5,5.3,11.7,11.7,11.7c6.5,0,11.7-5.3,11.7-11.7
		C515.3,178.2,511.5,173.5,506.3,172.3z M503.6,190.8c-3.4,0-6.2-3.2-6.2-7.1c0-3.8,2.6-6.9,5.9-7.1v0c0.1,0,0.2,0,0.2,0
		c0.1,0,0.2,0,0.2,0v0c0-0.7,0.1-1.3,0.4-1.9c-0.3,0.6-0.4,1.3-0.4,1.9v0c3.3,0.1,6,3.3,6,7.1C509.8,187.6,507,190.8,503.6,190.8z"
		/>
</g>
</svg>
