<?xml version="1.0" encoding="utf-8"?>
<!-- Generator: Adobe Illustrator 24.1.1, SVG Export Plug-In . SVG Version: 6.00 Build 0)  -->
<svg version="1.1" id="Слой_1" xmlns="http://www.w3.org/2000/svg" xmlns:xlink="http://www.w3.org/1999/xlink" x="0px" y="0px"
	 viewBox="0 0 622.68 212.68" style="enable-background:new 0 0 622.68 212.68;" xml:space="preserve">
<style type="text/css">
	.st0{fill:#FC233B;}
	.st1{fill:#1C1D1B;}
</style>
<g>
	<path class="st0" d="M40.82,40.82c22.35,0,40.49-17.97,40.8-40.24h0.01V0H61.21v0.26C61.07,11.41,52,20.41,40.82,20.41
		s-20.25-9-20.39-20.15V0H0v0.57h0.01C0.32,22.85,18.47,40.82,40.82,40.82z"/>
	<path class="st0" d="M61.21,41.08C61.07,52.23,52,61.22,40.82,61.22c-5.54,0-10.55-2.21-14.22-5.79L12.16,69.87
		c7.37,7.27,17.49,11.76,28.66,11.76c22.35,0,40.49-17.97,40.8-40.24h0.01v-0.57H61.21V41.08z"/>
	<path class="st1" d="M249.13,58.8c3.48,0,6.74-0.94,9.55-2.56v1.89v0.17v0.5h9.56v-0.5v-0.17v-19.2h-0.03
		c-0.4-10.19-8.79-18.34-19.09-18.34c-10.55,0-19.11,8.55-19.11,19.11C230.02,50.25,238.58,58.8,249.13,58.8z M249.13,30.14
		c5.28,0,9.55,4.28,9.55,9.55c0,5.28-4.28,9.55-9.55,9.55c-5.28,0-9.55-4.28-9.55-9.55C239.57,34.42,243.85,30.14,249.13,30.14z"/>
	<path class="st1" d="M134.48,58.8c10.46,0,18.96-8.41,19.1-18.84h0.01V20.59h-9.56v19.23c-0.07,5.22-4.31,9.43-9.55,9.43
		c-5.23,0-9.48-4.21-9.55-9.43V20.59h-9.56v19.38h0.01C115.53,50.39,124.02,58.8,134.48,58.8z"/>
	<path class="st1" d="M225.24,58.8V39.43h-0.01c-0.14-10.43-8.64-18.84-19.1-18.84c-5.71,0-10.83,2.51-14.33,6.47
		c-3.5-3.97-8.62-6.47-14.33-6.47c-10.46,0-18.96,8.41-19.1,18.84h-0.01V58.8h9.56V39.57c0.07-5.22,4.31-9.43,9.55-9.43
		c5.23,0,9.48,4.21,9.55,9.43V58.8h9.56V39.57c0.07-5.22,4.31-9.43,9.55-9.43c5.23,0,9.48,4.21,9.55,9.43V58.8H225.24z"/>
	<rect x="273.02" y="20.46" class="st1" width="9.56" height="38.48"/>
	<path class="st1" d="M393,21.11c-10.55,0-19.11,8.55-19.11,19.11c0,10.55,8.55,19.11,19.11,19.11c10.55,0,19.11-8.55,19.11-19.11
		C412.11,29.67,403.55,21.11,393,21.11z M393,49.77c-5.28,0-9.55-4.28-9.55-9.55c0-5.28,4.28-9.55,9.55-9.55s9.55,4.28,9.55,9.55
		C402.55,45.5,398.28,49.77,393,49.77z"/>
	<path class="st1" d="M436.04,59.19c10.46,0,18.96-8.41,19.1-18.84h0.01V20.98h-9.56v19.23c-0.07,5.22-4.31,9.43-9.55,9.43
		c-5.24,0-9.48-4.21-9.55-9.43V20.98h-9.56v19.38h0.01C417.09,50.78,425.58,59.19,436.04,59.19z"/>
	<path class="st1" d="M472.49,59.61v-4.82c3.26,2.59,7.37,4.14,11.86,4.14c10.55,0,19.11-8.55,19.11-19.11
		c0-10.55-8.55-19.11-19.11-19.11c-4.48,0-8.6,1.56-11.86,4.14v-3.73h-9.56v13.6v24.88v13.6h9.56V59.61z M484.35,30.27
		c5.28,0,9.55,4.28,9.55,9.55c0,5.28-4.28,9.55-9.55,9.55c-5.28,0-9.55-4.28-9.55-9.55C474.79,34.55,479.07,30.27,484.35,30.27z"/>
	<path class="st1" d="M326.17,59.19c3.48,0,6.74-0.94,9.55-2.56v2.06h0l0,0.6c0,2.25-1.35,4.16-3.59,5.63
		c-2.25,1.46-4.47,2.2-6.61,2.2c-4.59,0.03-8.19-0.84-10.8-2.61l-4.54,6.75c0.84,0.56,1.73,1.09,2.66,1.59
		c1.11,0.59,2.86,1.22,5.37,1.93c2.38,0.67,4.81,1.01,7.22,1.01c5.54,0,10.3-1.67,14.14-4.97c3.64-3.16,5.53-7.24,5.67-12.12h0.03
		v-0.57v-1.9V39.32h-0.03c-0.41-10.19-8.79-18.34-19.09-18.34c-10.55,0-19.11,8.55-19.11,19.11S315.61,59.19,326.17,59.19z
		 M326.17,30.53c5.28,0,9.55,4.28,9.55,9.55c0,5.28-4.28,9.55-9.55,9.55c-5.28,0-9.55-4.28-9.55-9.55
		C316.61,34.81,320.89,30.53,326.17,30.53z"/>
	<path class="st1" d="M359.62,39.96c0.07-5.2,4.28-9.4,9.49-9.43v-9.55c-10.44,0.03-18.9,8.43-19.05,18.84h-0.01v19.38h9.56V39.96z"
		/>
	<circle class="st1" cx="277.8" cy="11.73" r="5.89"/>
	<rect y="120.06" class="st1" width="115.38" height="4.78"/>
	<path class="st1" d="M359.43,182.72c0.21-0.38,0.17-0.86-0.15-1.18l-2.45-2.45c-0.39-0.39-1.04-0.35-1.43,0.03
		c-0.76,0.96-1.28,2.04-1.58,3.17c0,0-0.01,0-0.01-0.01c-0.04,0.13-0.05,0.27-0.08,0.41c-0.03,0.15-0.06,0.3-0.09,0.46
		c-0.03,0.17-0.05,0.35-0.07,0.52c-0.02,0.17-0.03,0.33-0.03,0.5c-0.01,0.16-0.02,0.33-0.02,0.49c0,0.29,0.02,0.57,0.05,0.86
		c0,0,0,0,0,0c0.21,1.93,1.04,3.8,2.49,5.26c2.47,2.47,5.88,3.5,9.38,2.82c1.95-0.38,3.75-1.35,5.22-2.82
		c2.31-2.31,3.58-5.38,3.58-8.65c0-3.27-1.27-6.35-3.58-8.66c-2.67-2.67-6.23-4.19-10.02-4.27l-0.33-0.01
		c-3.79,0-7.37,1.45-10.1,4.06c-0.86,0.73-1.63,1.51-2.3,2.34l-0.46,0.57l-0.41-0.6c-1.31-1.93-3.07-3.53-5.13-4.64l-0.36-0.18
		c-3.79-1.93-8.32-2.08-12.22-0.4l-0.21,0.09l-0.21-0.09c-4.54-1.94-9.83-1.38-13.86,1.39l-0.85,0.58v-2.23
		c0-0.5-0.41-0.91-0.91-0.91c-0.01,0-1.84,0-1.84,0c0,0-1.77,0-1.78,0c-0.06,0-0.38,0.01-0.64,0.27c-0.16,0.16-0.27,0.39-0.27,0.64
		v2.23l-0.58-0.4c-2.18-1.5-4.69-2.5-7.33-2.69c-2.37-0.18-4.66,0.2-6.81,1.12l-0.21,0.09l-0.21-0.09
		c-1.05-0.45-2.15-0.77-3.28-0.96l-0.16-0.03l-0.96-0.11c-0.13-0.01-0.27-0.02-0.41-0.03l-0.22-0.01c-4.66-0.2-9.09,1.82-11.99,5.48
		l-0.42,0.53l-0.42-0.53c-2.77-3.49-6.91-5.49-11.35-5.49c-3.51,0-6.9,1.28-9.54,3.6l-0.61,0.53l-0.26-0.77
		c-3.6-10.68-13.58-17.87-24.83-17.89l-0.11,0.01c-0.58,0.05-1.03,0.54-1.03,1.12V159c0,0.57,0.45,1.06,1.03,1.1l0.34,0.01l0.12,0
		c11.2,0.23,20.34,9.5,20.4,20.68l-0.01,0.12c0,3.37-1.65,6.88-4.3,9.17c-1.71,1.71-4.03,2.67-6.5,2.67c-2.09,0-4.07-0.69-5.68-1.95
		c-1.58-1.23-2.67-3.04-2.83-5.04c-0.17-2.14,0.64-4.18,2.22-5.62c0.88-0.81,2.06-1.22,3.25-1.22h0c1.32,0,2.56,0.51,3.49,1.44
		c1.13,1.12,1.32,2.91,0.46,4.25c0,0.01,0,0.02-0.01,0.03c-0.21,0.38-0.17,0.86,0.15,1.18l2.45,2.45c0.39,0.39,1.04,0.35,1.43-0.03
		c2.74-3.46,2.47-8.53-0.67-11.68c-2.47-2.47-5.89-3.51-9.38-2.82c-1.95,0.38-3.75,1.35-5.22,2.82c-2.31,2.31-3.58,5.38-3.58,8.65
		c0,3.27,1.27,6.35,3.58,8.66c2.67,2.67,6.23,4.18,10.02,4.27l0.38,0.01c3.77-0.01,7.34-1.46,10.06-4.06
		c0.86-0.73,1.63-1.52,2.3-2.34l0.46-0.57l0.41,0.6c2.71,4,7.2,6.39,12.01,6.39c4.44,0,8.57-2,11.35-5.49l0.42-0.53l0.42,0.53
		c2.9,3.64,7.27,5.67,11.93,5.48c0.02,0,0.04,0,0.06,0l1.58-0.16l0.14-0.02c2.29-0.38,4.48-1.32,6.34-2.72l0.12-0.09
		c0.11-0.08,0.21-0.16,0.32-0.25l0.46-0.39c0.15-0.14,0.3-0.28,0.45-0.42c1.64-1.6,2.82-3.44,3.57-5.51
		c0.07-0.17,0.09-0.32,0.07-0.49c-0.05-0.43-0.5-0.78-0.93-0.78c-1.05,0-2.97,0-3.93,0c-0.35,0-0.66,0.21-0.82,0.52
		c-0.66,1.28-1.62,2.39-2.78,3.22c-0.09,0.07-0.19,0.13-0.28,0.19c-0.12,0.08-0.23,0.15-0.35,0.22c-0.15,0.09-0.31,0.18-0.46,0.26
		l-0.2,0.09c-0.17,0.08-0.28,0.14-0.4,0.19l-0.29,0.12c-0.11,0.04-0.22,0.08-0.33,0.12l-0.27,0.09c-0.15,0.04-0.26,0.08-0.37,0.11
		c-0.09,0.03-0.19,0.05-0.29,0.07c-0.12,0.03-0.25,0.05-0.37,0.07l-0.27,0.05c-0.15,0.02-0.3,0.04-0.45,0.05l-0.22,0.02
		c-0.65,0.05-1.29,0.04-2-0.09c-4.09-0.71-7.35-4.05-7.69-8.19c-0.43-5.32,3.78-9.79,9.01-9.79c0.23,0,0.45,0.01,0.68,0.03
		l0.13,0.01c0.23,0.02,0.39,0.04,0.54,0.06l0.19,0.03c0.19,0.03,0.33,0.06,0.47,0.09l0.11,0.03c0.25,0.06,0.5,0.13,0.75,0.22
		l0.16,0.06c0.24,0.09,0.41,0.16,0.59,0.23c0.11,0.05,0.22,0.1,0.33,0.15c0.13,0.06,0.25,0.13,0.37,0.19
		c0.16,0.09,0.27,0.15,0.37,0.21c0.06,0.03,0.11,0.07,0.17,0.11l0.16,0.1c0.1,0.06,0.19,0.13,0.29,0.19
		c1.13,0.82,2.07,1.92,2.72,3.17c0.16,0.31,0.47,0.52,0.82,0.52h3.95c0.29,0,0.57-0.14,0.74-0.39c0.17-0.24,0.21-0.55,0.11-0.83
		c-0.42-1.17-0.99-2.3-1.7-3.33l-0.63-0.93l1.12,0.08c4.7,0.35,8.38,4.31,8.38,9.02l0,13.58c0,0.5,0.41,0.91,0.91,0.91h3.62
		c0.5,0,0.91-0.41,0.91-0.91l0.02-13.32l-0.01-0.57c0.14-4.61,3.74-8.37,8.34-8.7l1.15-0.08l-0.51,0.75
		c-1.17,1.7-2.04,3.61-2.41,5.64c-1.67,9.18,5.36,17.2,14.24,17.2c3.2,0,6.23-1.03,8.78-2.98l0.12-0.09
		c0.21-0.16,0.42-0.33,0.62-0.51l0.58-0.5l0.31,0.71c3.58,10.63,13.47,17.8,24.66,17.89h0.28c0.59-0.03,1.06-0.51,1.06-1.11v-3.23
		c0-0.6-0.49-1.1-1.08-1.11l-0.17,0l-0.28,0c-11.19-0.23-20.33-9.5-20.39-20.68l0-0.12c0-3.37,1.65-6.88,4.3-9.17
		c3.73-3.74,9.97-3.56,13.51,0.55c0.5,0.58,0.89,1.25,1.13,1.97c0.86,2.58,0.26,5.21-1.47,7.04c-0.69,0.73-1.57,1.27-2.55,1.48
		c-1.71,0.36-3.4-0.14-4.58-1.33c-0.79-0.79-1.11-1.91-0.94-2.97c0,0,0,0-0.01,0c0.07-0.44,0.23-0.87,0.48-1.26
		C359.43,182.73,359.43,182.72,359.43,182.72z M273.41,184.86c-0.51,4.03-3.77,7.28-7.79,7.79c-5.91,0.75-10.9-4.24-10.15-10.15
		c0.51-4.03,3.76-7.28,7.79-7.79C269.17,173.95,274.16,178.95,273.41,184.86z M343.91,185.45l-0.02,0.11
		c-0.05,0.23-0.11,0.46-0.18,0.69l-0.05,0.18c-0.06,0.2-0.14,0.39-0.21,0.58l-0.09,0.22c-0.09,0.22-0.2,0.44-0.31,0.65
		c-0.09,0.17-0.19,0.34-0.29,0.51l-0.08,0.14c-0.11,0.17-0.23,0.34-0.35,0.51c-1.7,2.31-4.42,3.69-7.27,3.69
		c-5.5,0-9.86-4.93-8.92-10.6c0.51-3.07,2.64-5.7,5.53-6.85c4.08-1.61,8.47-0.12,10.81,3.24l0.11,0.16
		c0.14,0.21,0.27,0.43,0.39,0.65c0.74,1.35,1.11,2.84,1.11,4.34C344.09,184.27,344.03,184.87,343.91,185.45z"/>
	<path class="st1" d="M86.21,168.77l3.05-6.22l-1.4-0.69l-1.76,3.59c-2.83-1.36-6-2.13-9.35-2.13c-11.94,0-21.63,9.68-21.63,21.63
		c0,8.44,4.85,15.74,11.91,19.31l-1.93,3.92l1.4,0.69l3.16-6.42c2.19,0.89,4.58,1.39,7.09,1.39c8.17,0,15.11-5.21,17.71-12.48
		c-5.08,3.23-13.35,3.47-21.4,0.06c-6.85-2.9-11.9-7.76-14-12.78c-0.72,2-1.12,4.15-1.12,6.4c0,7.32,4.19,13.66,10.29,16.77
		l-0.98,2.01c-6.32-3.26-10.65-9.84-10.65-17.44c0-7.03,3.7-13.19,9.25-16.65c-2.91,2.07-5.21,4.95-6.56,8.31
		c1.81,4.67,6.47,9.23,12.84,11.93c9.97,4.23,20.34,2.29,23.15-4.34c0.1-0.22,0.18-0.45,0.25-0.67
		C95.52,178.03,91.77,172.01,86.21,168.77z"/>
	<path class="st1" d="M169.04,177.22c0-4.41,11.45-1.38,13.45,0.93l3.64-2.89c-2.16-2.6-6.84-4.4-12.78-4.4
		c-9.22,0-13.23,4.71-13.23,9.67c0,9.17,18.21,8.16,18.21,12.13c0,5.39-13.3,1.01-14.79-1.95l-4.02,3.32
		c6.19,8.31,29.91,8.47,27.94-5.26C186.06,178.88,169.04,181.7,169.04,177.22z"/>
	<polygon class="st1" points="42.82,170.87 32.71,170.87 32.71,199.79 52.04,199.79 54.02,194.75 42.82,194.75 	"/>
	<path class="st1" d="M16.62,187.2h4.56v8.1c-7.52,1.53-10.58-4.6-10.45-10.35c0.05-1.97,0.64-9.45,7.63-9.45
		c4.7,0,6.81,2.18,7.87,2.99l3.36-3.39c-3.14-2.58-7.45-4.22-12.21-4.22c-9.6,0-17.38,6.47-17.38,14.46
		c0,7.99,7.78,14.46,17.38,14.46c4.82,0,9.18-1.63,12.33-4.27v-12.48v-0.48H16.62V187.2z"/>
	<path class="st1" d="M118.58,184.54c3.56-0.53,6.29-3.34,6.29-6.74c0-4.48-3.93-6.91-8.05-6.93H98.18v28.93h18.63l0.59-0.02
		c0.15,0.01-0.29,0.02-0.13,0.02c4.63,0,8.98-3.15,8.98-7.64C126.25,188.15,122.87,184.86,118.58,184.54z M107.67,175.34h3.12v0.01
		c2.23,0.1,4.01,2,4.01,4.33c0,2.33-1.78,4.23-4.01,4.33v0.01h-3.12V175.34z M111.21,195.4c-0.01,0-0.02,0-0.04,0v0h-3.49v-8.14
		h3.49v0c0.02,0,0.03,0,0.04,0c2.18,0,3.93,1.82,3.93,4.07C115.14,193.58,113.38,195.4,111.21,195.4z"/>
	<path class="st1" d="M157.7,170.87h-10.03v18.61h-0.02c-0.1,2.51-2.15,4.51-4.67,4.51c-2.53,0-4.57-2-4.67-4.51v-18.61h-10.03
		v14.89c0,0-0.74,14.04,14.7,14.04c15.47,0,14.72-14.04,14.72-14.04V170.87z"/>
	<path class="st1" d="M462.28,190.63c-0.67,0-1.05-0.54-1.05-1.2v-9.71c0-2.64-0.94-4.6-2.77-5.88c-1.83-1.32-4.13-1.96-6.9-1.96
		c-2.87,0-5.06,0.63-7.34,1.6c-0.95,0.41-1.42,1.49-1.07,2.47l0.14,0.38c0.37,1.02,1.49,1.55,2.5,1.18
		c1.98-0.72,3.96-1.07,5.56-1.07c2.77,0,4.86,1.26,4.86,3.4v1.17h-6.22c-5.92,0-8.82,3.48-8.82,7.75c0,4.05,2.94,6.61,7.42,6.61
		c3.71,0,6.48-0.98,8.31-2.94c0.81,1.7,2.3,2.56,4.48,2.56h0.32c1.08,0,1.96-0.88,1.96-1.96v-1.18
		C463.63,191.17,463.07,190.63,462.28,190.63z M449.98,190.71c-1.88,0-3.46-0.81-3.46-2.3c0-1.88,0.7-3.12,3.9-3.12h5.78
		C456.2,188.44,454.45,190.71,449.98,190.71z"/>
	<path class="st1" d="M478.78,171.96c-2.86,0-5.28,1.11-7.2,3.37v-0.98c0-1.08-0.88-1.96-1.96-1.96h-0.85
		c-1.08,0-1.96,0.88-1.96,1.96v26.95c0,1.08,0.88,1.96,1.96,1.96h1.36c1.08,0,1.96-0.88,1.96-1.96v-8.24
		c1.66,1.53,3.79,2.3,6.31,2.3c6.69,0,10.57-4.35,10.57-11.81c0-3.54-0.9-6.35-2.73-8.44C484.41,173.03,481.93,171.96,478.78,171.96
		z M477.89,190.71c-3.62,0-5.79-2.47-5.79-6.9v-0.51c0.04-4.22,2.3-6.69,5.92-6.69c3.58,0,5.71,2.77,5.71,7.07
		C483.72,187.94,481.51,190.71,477.89,190.71z"/>
	<path class="st1" d="M540.36,190.07h-1.37v-15.73c0-1.08-0.88-1.96-1.96-1.96h-11.9c-1.53,0-2.81,1.18-2.93,2.7
		c-0.46,5.66-0.99,9.5-1.58,11.53c-0.64,2.3-1.64,3.45-1.64,3.45h-1.5c-1.08,0-1.96,0.88-1.96,1.96v6.53c0,1.08,0.88,1.96,1.96,1.96
		h1.19c1.08,0,1.96-0.88,1.96-1.96v-3.63h16.53v3.63c0,1.08,0.88,1.96,1.96,1.96h1.27c1.09,0,1.97-0.88,1.96-1.97l-0.03-6.53
		C542.32,190.95,541.44,190.07,540.36,190.07z M533.71,190.07h-9.09c1.26-2.36,2.05-6.65,2.52-12.83h6.57V190.07z"/>
	<path class="st1" d="M564,172.39h-1.32c-1.08,0-1.96,0.88-1.96,1.96v6.43h-9.93v-6.43c0-1.08-0.88-1.96-1.96-1.96h-1.36
		c-1.08,0-1.96,0.88-1.96,1.96v18.62c0,1.08,0.88,1.96,1.96,1.96h1.36c1.08,0,1.96-0.88,1.96-1.96v-7.37h9.93v7.37
		c0,1.08,0.88,1.96,1.96,1.96H564c1.08,0,1.96-0.88,1.96-1.96v-18.62C565.96,173.27,565.08,172.39,564,172.39z"/>
	<path class="st1" d="M580.84,179.55h-4.17v-5.2c0-1.08-0.88-1.96-1.96-1.96h-1.36c-1.08,0-1.96,0.88-1.96,1.96v18.62
		c0,1.08,0.88,1.96,1.96,1.96h7.49c4.81,0,7.97-3.03,7.97-7.67C588.81,182.53,585.66,179.55,580.84,179.55z M580.84,190.03h-4.17
		v-5.63h4.17c1.7,0,2.77,1.11,2.77,2.86C583.61,188.92,582.55,190.03,580.84,190.03z"/>
	<path class="st1" d="M594.5,172.39h-1.36c-1.08,0-1.96,0.88-1.96,1.96v18.62c0,1.08,0.88,1.96,1.96,1.96h1.36
		c1.08,0,1.96-0.88,1.96-1.96v-18.62C596.47,173.27,595.59,172.39,594.5,172.39z"/>
	<path class="st1" d="M620.72,172.39h-1.7c-0.97,0-1.87,0.47-2.42,1.27l-9.43,13.56v-12.87c0-1.08-0.88-1.96-1.96-1.96h-1.36
		c-1.08,0-1.96,0.88-1.96,1.96v18.62c0,1.08,0.88,1.96,1.96,1.96h1.65c0.97,0,1.87-0.47,2.42-1.27l9.47-13.59v12.9
		c0,1.08,0.88,1.96,1.96,1.96h1.36c1.08,0,1.96-0.88,1.96-1.96v-18.62C622.68,173.27,621.8,172.39,620.72,172.39z"/>
	<path class="st1" d="M612.29,170.34c2.9,0,5.12-1.64,5.97-3.82c0.38-0.97-0.32-2.02-1.37-2.02h-0.56c-0.6,0-1.18,0.35-1.39,0.91
		c-0.36,0.97-1.33,1.56-2.65,1.56c-1.19,0-2.18-0.59-2.56-1.56c-0.22-0.57-0.8-0.91-1.41-0.91h-0.63c-1.04,0-1.75,1.05-1.37,2.02
		C607.17,168.71,609.38,170.34,612.29,170.34z"/>
	<path class="st1" d="M435.43,172.39h-1.32c-1.08,0-1.96,0.88-1.96,1.96v6.43h-9.93v-6.43c0-1.08-0.88-1.96-1.96-1.96h-1.36
		c-1.08,0-1.96,0.88-1.96,1.96v18.62c0,1.08,0.88,1.96,1.96,1.96h1.36c1.08,0,1.96-0.88,1.96-1.96v-7.37h9.93v7.37
		c0,1.08,0.88,1.96,1.96,1.96h1.32c1.08,0,1.96-0.88,1.96-1.96v-18.62C437.39,173.27,436.51,172.39,435.43,172.39z"/>
	<path class="st1" d="M506.32,172.29c0.1-0.06,0.19-0.11,0.29-0.16l5.93-2.96c1.71-0.85,2.79-2.6,2.79-4.51v-7.19h-0.49
		c0,1.91-1.07,3.65-2.78,4.51l-5.93,2.96c-1.71,0.85-2.79,2.6-2.79,4.51v2.53c-6.37,0.13-11.49,5.33-11.49,11.73
		c0,6.48,5.25,11.74,11.73,11.74c6.48,0,11.74-5.26,11.74-11.74C515.34,178.16,511.49,173.52,506.32,172.29z M503.6,190.78
		c-3.42,0-6.19-3.17-6.19-7.07c0-3.81,2.64-6.91,5.94-7.06v0c0.08,0,0.16-0.01,0.25-0.01c0.08,0,0.16,0,0.24,0.01v-0.01
		c0-0.68,0.14-1.34,0.39-1.94c-0.25,0.6-0.39,1.26-0.39,1.94v0.01c3.31,0.14,5.95,3.25,5.95,7.06
		C509.8,187.61,507.02,190.78,503.6,190.78z"/>
</g>
</svg>
